<mxfile host="app.diagrams.net" agent="Mozilla/5.0 (Macintosh; Intel Mac OS X 10_15_7) AppleWebKit/537.36 (KHTML, like Gecko) Chrome/140.0.0.0 Safari/537.36" version="28.2.5">
  <diagram name="Page-1" id="VXtb2nPkONFGcZa5ZnE_">
    <mxGraphModel dx="1368" dy="875" grid="1" gridSize="10" guides="1" tooltips="1" connect="1" arrows="1" fold="1" page="1" pageScale="1" pageWidth="850" pageHeight="1100" math="0" shadow="0">
      <root>
        <mxCell id="0" />
        <mxCell id="1" parent="0" />
        <mxCell id="WtTVvafhwajfm4MTaFXI-7" value="" style="rounded=0;whiteSpace=wrap;html=1;labelPosition=right;verticalLabelPosition=top;align=left;verticalAlign=bottom;" vertex="1" parent="1">
          <mxGeometry x="260" y="80" width="420" height="360" as="geometry" />
        </mxCell>
        <mxCell id="WtTVvafhwajfm4MTaFXI-2" value="Web Server" style="image;aspect=fixed;perimeter=ellipsePerimeter;html=1;align=center;shadow=0;dashed=0;spacingTop=3;image=img/lib/active_directory/web_server.svg;fontSize=16;" vertex="1" parent="1">
          <mxGeometry x="320" y="190" width="70" height="87.5" as="geometry" />
        </mxCell>
        <mxCell id="WtTVvafhwajfm4MTaFXI-3" value="Aurora DB" style="image;aspect=fixed;perimeter=ellipsePerimeter;html=1;align=center;shadow=0;dashed=0;spacingTop=3;image=img/lib/active_directory/database.svg;fontSize=16;" vertex="1" parent="1">
          <mxGeometry x="447.69999999999993" y="130" width="94.59" height="70" as="geometry" />
        </mxCell>
        <mxCell id="WtTVvafhwajfm4MTaFXI-4" value="S3" style="outlineConnect=0;dashed=0;verticalLabelPosition=bottom;verticalAlign=top;align=center;html=1;shape=mxgraph.aws3.s3;fillColor=#E05243;gradientColor=none;fontSize=16;" vertex="1" parent="1">
          <mxGeometry x="460" y="310" width="70" height="70" as="geometry" />
        </mxCell>
        <mxCell id="WtTVvafhwajfm4MTaFXI-5" value="Internal Service" style="points=[];aspect=fixed;html=1;align=center;shadow=0;dashed=0;fillColor=#FF6A00;strokeColor=none;shape=mxgraph.alibaba_cloud.webplus_web_app_service;labelPosition=center;verticalLabelPosition=bottom;verticalAlign=top;fontSize=16;" vertex="1" parent="1">
          <mxGeometry x="90" y="116" width="54.900000000000006" height="54.900000000000006" as="geometry" />
        </mxCell>
        <mxCell id="WtTVvafhwajfm4MTaFXI-6" value="Internal User" style="shape=umlActor;verticalLabelPosition=bottom;verticalAlign=top;html=1;outlineConnect=0;fontSize=16;" vertex="1" parent="1">
          <mxGeometry x="100" y="300" width="30" height="60" as="geometry" />
        </mxCell>
        <mxCell id="WtTVvafhwajfm4MTaFXI-8" value="Audit Trail Service" style="text;html=1;align=center;verticalAlign=middle;resizable=0;points=[];autosize=1;strokeColor=none;fillColor=none;fontSize=16;" vertex="1" parent="1">
          <mxGeometry x="530" y="86" width="150" height="30" as="geometry" />
        </mxCell>
        <mxCell id="WtTVvafhwajfm4MTaFXI-9" value="" style="endArrow=classic;html=1;rounded=0;" edge="1" parent="1" source="WtTVvafhwajfm4MTaFXI-6" target="WtTVvafhwajfm4MTaFXI-2">
          <mxGeometry width="50" height="50" relative="1" as="geometry">
            <mxPoint x="190" y="260" as="sourcePoint" />
            <mxPoint x="420" y="430" as="targetPoint" />
          </mxGeometry>
        </mxCell>
        <mxCell id="WtTVvafhwajfm4MTaFXI-10" value="" style="endArrow=classic;html=1;rounded=0;exitX=1;exitY=0.5;exitDx=0;exitDy=0;entryX=0;entryY=0.5;entryDx=0;entryDy=0;" edge="1" parent="1" source="WtTVvafhwajfm4MTaFXI-2" target="WtTVvafhwajfm4MTaFXI-3">
          <mxGeometry width="50" height="50" relative="1" as="geometry">
            <mxPoint x="190" y="533" as="sourcePoint" />
            <mxPoint x="379" y="480" as="targetPoint" />
          </mxGeometry>
        </mxCell>
        <mxCell id="WtTVvafhwajfm4MTaFXI-11" value="" style="endArrow=classic;html=1;rounded=0;exitX=1;exitY=0.5;exitDx=0;exitDy=0;entryX=0;entryY=0.5;entryDx=0;entryDy=0;entryPerimeter=0;" edge="1" parent="1" source="WtTVvafhwajfm4MTaFXI-2" target="WtTVvafhwajfm4MTaFXI-4">
          <mxGeometry width="50" height="50" relative="1" as="geometry">
            <mxPoint x="330" y="613" as="sourcePoint" />
            <mxPoint x="519" y="560" as="targetPoint" />
          </mxGeometry>
        </mxCell>
        <mxCell id="WtTVvafhwajfm4MTaFXI-12" value="" style="endArrow=classic;html=1;rounded=0;exitX=0.965;exitY=0.474;exitDx=0;exitDy=0;exitPerimeter=0;entryX=0;entryY=0.583;entryDx=0;entryDy=0;entryPerimeter=0;" edge="1" parent="1" source="WtTVvafhwajfm4MTaFXI-5" target="WtTVvafhwajfm4MTaFXI-2">
          <mxGeometry width="50" height="50" relative="1" as="geometry">
            <mxPoint x="210" y="483" as="sourcePoint" />
            <mxPoint x="310" y="240" as="targetPoint" />
          </mxGeometry>
        </mxCell>
      </root>
    </mxGraphModel>
  </diagram>
</mxfile>
